# xmcd CD database file generated by LOLA_Freedb v0.9beta0
# 
# Track frame offsets:
#      150
#      16012
#      31858
#      50156
# 
# Disc length: 875 seconds
# 
# Revision: 0 
# Processed by: cddbd v1.5.2PL0 Copyright (c) Steve Scherf et al.
# Submitted via: LOLA_Freedb v0.9beta0
# 
DISCID=26036904
DTITLE=Jonas - HAMBURG
DYEAR=2009
DGENRE=
TTITLE0=Jonas - HAMBURG-Radio Version
TTITLE1=Jonas - HAMBURG-Abenteuer
TTITLE2=Jonas - HAMBURG-Partyversion mit Schunkelt.
TTITLE3=HAMBURG-Karaoke Version
EXTD=
EXTT0=
EXTT1=
EXTT2=
EXTT3=
PLAYORDER=
